<svg width="77" height="26" viewBox="0 0 77 26" fill="none" xmlns="http://www.w3.org/2000/svg">
<rect x="0.5" y="0.5" width="76" height="25" rx="1.5" fill="#3499FF"/>
<rect x="0.5" y="0.5" width="76" height="25" rx="1.5" stroke="#1985F1"/>
<path d="M13.78 12.18C13.78 12.5533 13.69 12.9033 13.51 13.23C13.3367 13.5567 13.06 13.82 12.68 14.02C12.3067 14.22 11.8333 14.32 11.26 14.32H10.09V17H8.69V10.02H11.26C11.8 10.02 12.26 10.1133 12.64 10.3C13.02 10.4867 13.3033 10.7433 13.49 11.07C13.6833 11.3967 13.78 11.7667 13.78 12.18ZM11.2 13.19C11.5867 13.19 11.8733 13.1033 12.06 12.93C12.2467 12.75 12.34 12.5 12.34 12.18C12.34 11.5 11.96 11.16 11.2 11.16H10.09V13.19H11.2ZM18.374 17L16.834 14.28H16.174V17H14.774V10.02H17.394C17.934 10.02 18.394 10.1167 18.774 10.31C19.154 10.4967 19.4373 10.7533 19.624 11.08C19.8173 11.4 19.914 11.76 19.914 12.16C19.914 12.62 19.7807 13.0367 19.514 13.41C19.2473 13.7767 18.8507 14.03 18.324 14.17L19.994 17H18.374ZM16.174 13.23H17.344C17.724 13.23 18.0073 13.14 18.194 12.96C18.3807 12.7733 18.474 12.5167 18.474 12.19C18.474 11.87 18.3807 11.6233 18.194 11.45C18.0073 11.27 17.724 11.18 17.344 11.18H16.174V13.23ZM24.4202 17.07C23.7669 17.07 23.1669 16.9167 22.6202 16.61C22.0736 16.3033 21.6402 15.88 21.3202 15.34C21.0002 14.7933 20.8402 14.1767 20.8402 13.49C20.8402 12.81 21.0002 12.2 21.3202 11.66C21.6402 11.1133 22.0736 10.6867 22.6202 10.38C23.1669 10.0733 23.7669 9.92 24.4202 9.92C25.0802 9.92 25.6802 10.0733 26.2202 10.38C26.7669 10.6867 27.1969 11.1133 27.5102 11.66C27.8302 12.2 27.9902 12.81 27.9902 13.49C27.9902 14.1767 27.8302 14.7933 27.5102 15.34C27.1969 15.88 26.7669 16.3033 26.2202 16.61C25.6736 16.9167 25.0736 17.07 24.4202 17.07ZM24.4202 15.82C24.8402 15.82 25.2102 15.7267 25.5302 15.54C25.8502 15.3467 26.1002 15.0733 26.2802 14.72C26.4602 14.3667 26.5502 13.9567 26.5502 13.49C26.5502 13.0233 26.4602 12.6167 26.2802 12.27C26.1002 11.9167 25.8502 11.6467 25.5302 11.46C25.2102 11.2733 24.8402 11.18 24.4202 11.18C24.0002 11.18 23.6269 11.2733 23.3002 11.46C22.9802 11.6467 22.7302 11.9167 22.5502 12.27C22.3702 12.6167 22.2802 13.0233 22.2802 13.49C22.2802 13.9567 22.3702 14.3667 22.5502 14.72C22.7302 15.0733 22.9802 15.3467 23.3002 15.54C23.6269 15.7267 24.0002 15.82 24.4202 15.82ZM37.6846 10.02L35.1246 17H33.4246L30.8646 10.02H32.3646L34.2846 15.57L36.1946 10.02H37.6846ZM40.934 17.07C40.4473 17.07 40.0073 16.9867 39.614 16.82C39.2273 16.6533 38.9207 16.4133 38.694 16.1C38.4673 15.7867 38.3507 15.4167 38.344 14.99H39.844C39.864 15.2767 39.964 15.5033 40.144 15.67C40.3307 15.8367 40.584 15.92 40.904 15.92C41.2307 15.92 41.4873 15.8433 41.674 15.69C41.8607 15.53 41.954 15.3233 41.954 15.07C41.954 14.8633 41.8907 14.6933 41.764 14.56C41.6373 14.4267 41.4773 14.3233 41.284 14.25C41.0973 14.17 40.8373 14.0833 40.504 13.99C40.0507 13.8567 39.6807 13.7267 39.394 13.6C39.114 13.4667 38.8707 13.27 38.664 13.01C38.464 12.7433 38.364 12.39 38.364 11.95C38.364 11.5367 38.4673 11.1767 38.674 10.87C38.8807 10.5633 39.1707 10.33 39.544 10.17C39.9173 10.0033 40.344 9.92 40.824 9.92C41.544 9.92 42.1273 10.0967 42.574 10.45C43.0273 10.7967 43.2773 11.2833 43.324 11.91H41.784C41.7707 11.67 41.6673 11.4733 41.474 11.32C41.2873 11.16 41.0373 11.08 40.724 11.08C40.4507 11.08 40.2307 11.15 40.064 11.29C39.904 11.43 39.824 11.6333 39.824 11.9C39.824 12.0867 39.884 12.2433 40.004 12.37C40.1307 12.49 40.284 12.59 40.464 12.67C40.6507 12.7433 40.9107 12.83 41.244 12.93C41.6973 13.0633 42.0673 13.1967 42.354 13.33C42.6407 13.4633 42.8873 13.6633 43.094 13.93C43.3007 14.1967 43.404 14.5467 43.404 14.98C43.404 15.3533 43.3073 15.7 43.114 16.02C42.9207 16.34 42.6373 16.5967 42.264 16.79C41.8907 16.9767 41.4473 17.07 40.934 17.07ZM51.3105 10.02V11.15H48.4005V12.94H50.6305V14.05H48.4005V17H47.0005V10.02H51.3105ZM55.9033 17L54.3633 14.28H53.7033V17H52.3033V10.02H54.9233C55.4633 10.02 55.9233 10.1167 56.3033 10.31C56.6833 10.4967 56.9666 10.7533 57.1533 11.08C57.3466 11.4 57.4433 11.76 57.4433 12.16C57.4433 12.62 57.3099 13.0367 57.0433 13.41C56.7766 13.7767 56.3799 14.03 55.8533 14.17L57.5233 17H55.9033ZM53.7033 13.23H54.8733C55.2533 13.23 55.5366 13.14 55.7233 12.96C55.9099 12.7733 56.0033 12.5167 56.0033 12.19C56.0033 11.87 55.9099 11.6233 55.7233 11.45C55.5366 11.27 55.2533 11.18 54.8733 11.18H53.7033V13.23ZM60.1095 11.15V12.9H62.4595V14.01H60.1095V15.86H62.7595V17H58.7095V10.01H62.7595V11.15H60.1095ZM65.4318 11.15V12.9H67.7818V14.01H65.4318V15.86H68.0818V17H64.0318V10.01H68.0818V11.15H65.4318Z" fill="white"/>
</svg>
