<svg width="24" height="24" viewBox="0 0 24 24" fill="none" xmlns="http://www.w3.org/2000/svg">
<g clip-path="url(#clip0_2219_1151)">
<path d="M16.0229 22.1147L15.3402 21.3193H8.69685L7.97696 22.1147L6.65393 23.6491H17.3459L16.0229 22.1147Z" fill="#EFEDEF"/>
<path d="M12.248 21.3193H8.69685L7.97696 22.1147L6.65393 23.6491H10.2051L11.5281 22.1147L12.248 21.3193Z" fill="#E5E1E5"/>
<path d="M7.97705 16.8662H16.023V22.1138H7.97705V16.8662Z" fill="#C9BFC8"/>
<path d="M16.023 16.8662H11.5186H7.97705V22.1138H11.5186V21.9375C11.5186 21.4289 11.931 21.0166 12.4396 21.0166H16.023V16.8662Z" fill="#BAAFB9"/>
<path d="M22.7102 18.9041L23.6055 17.9627V5.58554C23.6055 4.54595 22.7627 3.70312 21.7231 3.70312H2.27682C1.23723 3.70312 0.394409 4.54595 0.394409 5.58554V17.9627L2.02838 18.9041H22.7102Z" fill="#99E6FC"/>
<path d="M8.20206 17.9627V5.58554C8.20206 4.54595 9.04488 3.70312 10.0845 3.70312H2.27682C1.23723 3.70312 0.394409 4.54595 0.394409 5.58554V17.9627L2.02838 18.9041H8.45444C8.29421 18.6271 8.20206 18.3058 8.20206 17.9627Z" fill="#62DBFB"/>
<path d="M0.394409 17.9629H23.6055C23.6055 19.0029 22.7627 19.8458 21.7231 19.8458H2.27682C1.23723 19.8458 0.394409 19.0029 0.394409 17.9629Z" fill="#EFEDEF"/>
<path d="M8.20206 17.9629H0.394409C0.394409 19.0029 1.23723 19.8458 2.27682 19.8458H10.0843C9.04479 19.8457 8.20206 19.0029 8.20206 17.9629Z" fill="#E5E1E5"/>
<path d="M4.64385 14.3484C4.4498 14.3484 4.29248 14.191 4.29248 13.997V6.09161C4.29248 5.89755 4.4498 5.74023 4.64385 5.74023C4.8379 5.74023 4.99522 5.89755 4.99522 6.09161V13.997C4.99522 14.191 4.8379 14.3484 4.64385 14.3484Z" fill="#9CF8D2"/>
<path d="M8.78765 6.52085C8.5936 6.52085 8.43628 6.36353 8.43628 6.16948V3.17852C8.43628 2.98447 8.5936 2.82715 8.78765 2.82715C8.9817 2.82715 9.13902 2.98447 9.13902 3.17852V6.16944C9.13902 6.36353 8.9817 6.52085 8.78765 6.52085Z" fill="#F07281"/>
<path d="M8.78765 13.6682C8.5936 13.6682 8.43628 13.5109 8.43628 13.3168V8.87676C8.43628 8.68271 8.5936 8.52539 8.78765 8.52539C8.9817 8.52539 9.13902 8.68271 9.13902 8.87676V13.3168C9.13902 13.5109 8.9817 13.6682 8.78765 13.6682Z" fill="#F07281"/>
<path d="M12.9316 4.30308C12.7375 4.30308 12.5802 4.14576 12.5802 3.95171V0.351371C12.5802 0.157321 12.7375 0 12.9316 0C13.1257 0 13.2829 0.157321 13.2829 0.351371V3.95171C13.2829 4.14576 13.1257 4.30308 12.9316 4.30308Z" fill="#9CF8D2"/>
<path d="M12.9316 11.7399C12.7375 11.7399 12.5802 11.5826 12.5802 11.3886V6.27129C12.5802 6.07724 12.7375 5.91992 12.9316 5.91992C13.1257 5.91992 13.2829 6.07724 13.2829 6.27129V11.3886C13.2829 11.5826 13.1257 11.7399 12.9316 11.7399Z" fill="#9CF8D2"/>
<path d="M17.0754 8.04125C16.8813 8.04125 16.724 7.88393 16.724 7.68988V1.94121C16.724 1.74716 16.8813 1.58984 17.0754 1.58984C17.2695 1.58984 17.4267 1.74716 17.4267 1.94121V7.68983C17.4267 7.88393 17.2695 8.04125 17.0754 8.04125Z" fill="#F07281"/>
<path d="M17.0754 14.1531C16.8813 14.1531 16.724 13.9958 16.724 13.8018V9.02715C16.724 8.8331 16.8813 8.67578 17.0754 8.67578C17.2695 8.67578 17.4267 8.8331 17.4267 9.02715V13.8018C17.4267 13.9958 17.2695 14.1531 17.0754 14.1531Z" fill="#F07281"/>
<path d="M15.1798 11.3488L8.04159 15.1975L7.64192 14.1502C7.60782 14.0609 7.53881 13.9893 7.45078 13.952C7.36275 13.9147 7.26333 13.9149 7.1754 13.9525L2.30525 16.0368C2.12685 16.1132 2.04411 16.3197 2.12048 16.4981C2.17754 16.6314 2.30727 16.7113 2.44365 16.7113C2.48974 16.7113 2.53664 16.7022 2.58176 16.6829L7.11576 14.7424L7.5278 15.822C7.56387 15.9165 7.63888 15.9908 7.73365 16.0261C7.82838 16.0612 7.93379 16.054 8.02281 16.006L15.5133 11.9673C15.6841 11.8752 15.7479 11.6621 15.6558 11.4913C15.5638 11.3206 15.3507 11.2567 15.1798 11.3488Z" fill="#E53950"/>
<path d="M21.9303 7.96645L20.828 7.54654C20.6467 7.47748 20.4437 7.56846 20.3746 7.74982C20.3055 7.93117 20.3965 8.13417 20.5779 8.20328L20.8334 8.30063L19.2456 9.15676C19.0748 9.24886 19.011 9.46198 19.1031 9.63279C19.1666 9.75057 19.2876 9.81747 19.4127 9.81747C19.4689 9.81747 19.5261 9.80389 19.5791 9.77531L21.1976 8.90264L21.0812 9.2082C21.0121 9.38955 21.1031 9.59255 21.2845 9.66165C21.3257 9.6773 21.3679 9.68475 21.4095 9.68475C21.5511 9.68475 21.6845 9.59855 21.7379 9.45837L22.1335 8.41991C22.2026 8.23855 22.1116 8.03551 21.9303 7.96645Z" fill="#E53950"/>
<path d="M17.9239 23.9996H6.04363C5.84958 23.9996 5.69226 23.8423 5.69226 23.6482C5.69226 23.4542 5.84958 23.2969 6.04363 23.2969H17.9239C18.118 23.2969 18.2752 23.4542 18.2752 23.6482C18.2752 23.8423 18.118 23.9996 17.9239 23.9996Z" fill="#C9BFC8"/>
<path d="M17.6904 10.6629H16.4602C16.2855 10.6629 16.1438 10.5213 16.1438 10.3465V6.20998C16.1438 6.03523 16.2855 5.89355 16.4602 5.89355H17.6904C17.8651 5.89355 18.0068 6.03523 18.0068 6.20998V10.3465C18.0068 10.5213 17.8651 10.6629 17.6904 10.6629Z" fill="#EB5569"/>
<path d="M13.5466 9.16558H12.3164C12.1417 9.16558 12 9.02391 12 8.84916V2.41701C12 2.24226 12.1417 2.10059 12.3164 2.10059H13.5466C13.7213 2.10059 13.863 2.24226 13.863 2.41701V8.84916C13.863 9.02391 13.7213 9.16558 13.5466 9.16558Z" fill="#6CF5C2"/>
<path d="M9.40267 9.86117H8.1725C7.99775 9.86117 7.85608 9.71949 7.85608 9.54474V5.40822C7.85608 5.23347 7.99775 5.0918 8.1725 5.0918H9.40267C9.57742 5.0918 9.7191 5.23347 9.7191 5.40822V9.54474C9.71914 9.71949 9.57747 9.86117 9.40267 9.86117Z" fill="#EB5569"/>
<path d="M5.25888 11.7743H4.0287C3.85395 11.7743 3.71228 11.6326 3.71228 11.4578V7.3213C3.71228 7.14656 3.85395 7.00488 4.0287 7.00488H5.25888C5.43362 7.00488 5.5753 7.14656 5.5753 7.3213V11.4578C5.57534 11.6326 5.43367 11.7743 5.25888 11.7743Z" fill="#6CF5C2"/>
</g>
<defs>
<clipPath id="clip0_2219_1151">
<rect width="24" height="24" fill="white"/>
</clipPath>
</defs>
</svg>
