<svg width="20" height="20" viewBox="0 0 20 20" fill="none" xmlns="http://www.w3.org/2000/svg">
<g clip-path="url(#clip0_2212_1067)">
<path d="M10 4.72656C7.08754 4.72656 4.72656 7.08754 4.72656 10C4.72656 12.9125 7.08754 15.2734 10 15.2734C12.9125 15.2734 15.2734 12.9125 15.2734 10C15.2734 7.08754 12.9125 4.72656 10 4.72656ZM10 11.7578C9.0307 11.7578 8.24219 10.9693 8.24219 10C8.24219 9.0307 9.0307 8.24219 10 8.24219C10.9693 8.24219 11.7578 9.0307 11.7578 10C11.7578 10.9693 10.9693 11.7578 10 11.7578Z" fill="#FF5885"/>
<path d="M11.7578 10C11.7578 10.9693 10.9693 11.7578 10 11.7578V15.2734C12.9125 15.2734 15.2734 12.9125 15.2734 10C15.2734 7.08754 12.9125 4.72656 10 4.72656V8.24219C10.9693 8.24219 11.7578 9.0307 11.7578 10Z" fill="#DB3360"/>
<path d="M19.5079 8.25391L17.3125 7.89062C17.1602 7.3398 16.9375 6.82418 16.668 6.32027L17.9336 4.53898C18.0977 4.30465 18.0743 3.98824 17.875 3.78902L16.2109 2.12496C16.0118 1.92578 15.6953 1.9023 15.4609 2.06637L13.6797 3.33203C13.1758 3.06246 12.6602 2.83988 12.1093 2.6875L11.7461 0.492148C11.6992 0.210938 11.4531 0 11.1719 0H8.82812C8.54688 0 8.30078 0.210938 8.25391 0.492148L7.89062 2.6875C7.3398 2.83984 6.82418 3.06242 6.32027 3.33203L4.53906 2.06637C4.30469 1.9023 3.98824 1.92574 3.78906 2.12496L2.12504 3.78906C1.92578 3.98824 1.90238 4.30469 2.06641 4.53902L3.33203 6.32031C3.06254 6.82422 2.83988 7.33984 2.6875 7.89066L0.492148 8.25395C0.210938 8.30078 0 8.54688 0 8.82812V11.1719C0 11.4531 0.210938 11.6992 0.492148 11.7461L2.6875 12.1094C2.83984 12.6601 3.0625 13.1757 3.33203 13.6797L2.06637 15.4609C1.90234 15.6953 1.92574 16.0118 2.125 16.2109L3.78906 17.875C3.98824 18.0742 4.30469 18.0976 4.53906 17.9336L6.32031 16.668C6.82422 16.9375 7.33984 17.1601 7.89066 17.3125L8.25395 19.5078C8.30078 19.7891 8.54688 20 8.82812 20H11.1719C11.4531 20 11.6992 19.7891 11.7461 19.5078L12.1094 17.3125C12.6602 17.1602 13.1758 16.9375 13.6797 16.668L15.4609 17.9336C15.6953 18.0976 16.0118 18.0743 16.2109 17.875L17.875 16.2109C18.0742 16.0118 18.0976 15.6953 17.9336 15.4609L16.668 13.6797C16.9375 13.1757 17.1601 12.6601 17.3125 12.1093L19.5079 11.7461C19.7891 11.6992 20 11.4531 20 11.1719V8.82812C20 8.54688 19.7891 8.30078 19.5079 8.25391ZM10 14.1016C7.73828 14.1016 5.89844 12.2617 5.89844 10C5.89844 7.73828 7.73828 5.89844 10 5.89844C12.2617 5.89844 14.1016 7.73828 14.1016 10C14.1016 12.2617 12.2617 14.1016 10 14.1016Z" fill="#DB3360"/>
<path d="M20 8.82812V11.1719C20 11.4531 19.7891 11.6992 19.5079 11.7461L17.3125 12.1094C17.1602 12.6601 16.9375 13.1757 16.668 13.6797L17.9336 15.4609C18.0977 15.6953 18.0743 16.0118 17.875 16.2109L16.2109 17.875C16.0118 18.0742 15.6953 18.0976 15.4609 17.9336L13.6797 16.668C13.1758 16.9375 12.6602 17.1601 12.1093 17.3125L11.7461 19.5078C11.6992 19.7891 11.4531 20 11.1719 20H10V14.1016C12.2617 14.1016 14.1016 12.2617 14.1016 10C14.1016 7.73828 12.2617 5.89844 10 5.89844V0H11.1719C11.4531 0 11.6992 0.210938 11.7461 0.492148L12.1094 2.6875C12.6602 2.83984 13.1758 3.06242 13.6797 3.33203L15.4609 2.06637C15.6953 1.9023 16.0118 1.92574 16.2109 2.12496L17.875 3.78906C18.0742 3.98824 18.0976 4.30469 17.9336 4.53902L16.668 6.32031C16.9375 6.82422 17.1601 7.33984 17.3125 7.89066L19.5079 8.25395C19.7891 8.30078 20 8.54688 20 8.82812Z" fill="#FF5784"/>
</g>
<defs>
<clipPath id="clip0_2212_1067">
<rect width="20" height="20" fill="white"/>
</clipPath>
</defs>
</svg>
