<svg width="39" height="20" viewBox="0 0 39 20" fill="none" xmlns="http://www.w3.org/2000/svg">
<rect width="39" height="20" rx="10" fill="url(#paint0_linear_2262_2220)"/>
<path d="M10.912 14V5.6H13.636C14.3 5.6 14.844 5.712 15.268 5.936C15.7 6.152 16.02 6.448 16.228 6.824C16.436 7.2 16.54 7.624 16.54 8.096C16.54 8.56 16.436 8.98 16.228 9.356C16.028 9.732 15.712 10.032 15.28 10.256C14.856 10.48 14.308 10.592 13.636 10.592H11.92V14H10.912ZM11.92 9.74H13.612C14.3 9.74 14.788 9.592 15.076 9.296C15.364 8.992 15.508 8.592 15.508 8.096C15.508 7.576 15.364 7.172 15.076 6.884C14.788 6.588 14.3 6.44 13.612 6.44H11.92V9.74ZM17.8244 14V7.844H18.7364L18.8204 8.996C18.9564 8.716 19.1324 8.48 19.3484 8.288C19.5724 8.096 19.8404 7.952 20.1524 7.856C20.4644 7.752 20.8164 7.7 21.2084 7.7V8.756H20.7404C20.4924 8.756 20.2524 8.792 20.0204 8.864C19.7964 8.928 19.5924 9.036 19.4084 9.188C19.2324 9.332 19.0924 9.532 18.9884 9.788C18.8844 10.044 18.8324 10.364 18.8324 10.748V14H17.8244ZM24.8489 14.144C24.2729 14.144 23.7609 14.012 23.3129 13.748C22.8649 13.484 22.5129 13.112 22.2569 12.632C22.0089 12.144 21.8849 11.576 21.8849 10.928C21.8849 10.272 22.0129 9.704 22.2689 9.224C22.5249 8.744 22.8769 8.372 23.3249 8.108C23.7809 7.836 24.2969 7.7 24.8729 7.7C25.4489 7.7 25.9609 7.836 26.4089 8.108C26.8569 8.372 27.2049 8.744 27.4529 9.224C27.7089 9.704 27.8369 10.272 27.8369 10.928C27.8369 11.576 27.7089 12.144 27.4529 12.632C27.1969 13.112 26.8409 13.484 26.3849 13.748C25.9369 14.012 25.4249 14.144 24.8489 14.144ZM24.8489 13.28C25.2089 13.28 25.5369 13.192 25.8329 13.016C26.1289 12.84 26.3649 12.576 26.5409 12.224C26.7169 11.872 26.8049 11.44 26.8049 10.928C26.8049 10.4 26.7169 9.964 26.5409 9.62C26.3729 9.268 26.1409 9.004 25.8449 8.828C25.5489 8.652 25.2249 8.564 24.8729 8.564C24.5209 8.564 24.1969 8.652 23.9009 8.828C23.6049 9.004 23.3649 9.268 23.1809 9.62C23.0049 9.964 22.9169 10.4 22.9169 10.928C22.9169 11.44 23.0049 11.872 23.1809 12.224C23.3569 12.576 23.5889 12.84 23.8769 13.016C24.1729 13.192 24.4969 13.28 24.8489 13.28Z" fill="white"/>
<defs>
<linearGradient id="paint0_linear_2262_2220" x1="23.6895" y1="16.1719" x2="17.8041" y2="-3.66618" gradientUnits="userSpaceOnUse">
<stop stop-color="#4D2D71"/>
<stop offset="1" stop-color="#DB3360"/>
</linearGradient>
</defs>
</svg>
