<svg width="40" height="40" viewBox="0 0 40 40" fill="none" xmlns="http://www.w3.org/2000/svg">
<g clip-path="url(#clip0_2268_1342)">
<path d="M33.6617 16.3784L20.482 6.80313C20.3419 6.70132 20.1731 6.64648 19.9999 6.64648C19.8267 6.64648 19.6579 6.70132 19.5177 6.80313L6.33816 16.3784C6.198 16.4802 6.09368 16.6238 6.04014 16.7886C5.98661 16.9533 5.98662 17.1308 6.04017 17.2956L11.0751 32.7887C11.1286 32.9535 11.2329 33.097 11.3731 33.1988C11.5132 33.3007 11.682 33.3555 11.8553 33.3555H28.1447C28.3179 33.3555 28.4867 33.3007 28.6268 33.1988C28.767 33.097 28.8713 32.9535 28.9249 32.7887L33.9598 17.2956C34.0133 17.1308 34.0133 16.9533 33.9597 16.7886C33.9062 16.6238 33.8018 16.4802 33.6617 16.3784ZM20.8202 9.0767L31.3949 16.7594L20.8202 20.1953V9.0767ZM19.1796 9.0767V20.1952L8.60496 16.7594L19.1796 9.0767ZM8.098 18.3197L18.6727 21.7556L12.1378 30.7506L8.098 18.3197ZM13.4651 31.7149L19.9999 22.7199L26.5347 31.7149H13.4651ZM27.8621 30.7506L21.3271 21.7556L31.9018 18.3197L27.8621 30.7506Z" fill="#DB3360"/>
<path d="M28.9249 32.7887L33.9598 17.2956C34.0134 17.1309 34.0134 16.9534 33.9598 16.7886C33.9063 16.6239 33.802 16.4803 33.6618 16.3785L20.4821 6.80311C20.342 6.70122 20.1732 6.64639 20 6.64648V22.7199L26.5348 31.7149H20V33.3555H28.1447C28.3179 33.3555 28.4867 33.3007 28.6269 33.1989C28.767 33.0971 28.8713 32.9535 28.9249 32.7887ZM20.8203 9.07669L31.395 16.7594L20.8203 20.1953V9.07669ZM21.3272 21.7555L31.9019 18.3197L27.8621 30.7506L21.3272 21.7555Z" fill="#DB3360"/>
<path d="M14.4568 29.7739C14.3491 29.7739 14.2424 29.7527 14.1429 29.7115C14.0433 29.6703 13.9529 29.6098 13.8767 29.5337C13.8005 29.4575 13.7401 29.3671 13.6989 29.2675C13.6577 29.168 13.6365 29.0613 13.6365 28.9536V19.5233C13.6365 19.3069 13.722 19.0993 13.8743 18.9457L19.4173 13.356C19.537 13.2353 19.6912 13.1548 19.8586 13.1255C20.026 13.0963 20.1983 13.1197 20.3518 13.1926L29.5902 17.5816C29.694 17.6309 29.7863 17.7015 29.861 17.7887C29.9358 17.876 29.9914 17.978 30.0242 18.0881C30.0571 18.1982 30.0664 18.314 30.0517 18.428C30.0369 18.542 29.9983 18.6516 29.9385 18.7497L24.7269 27.2944C24.6692 27.3891 24.5928 27.4711 24.5025 27.5354C24.4122 27.5998 24.3097 27.6451 24.2014 27.6688L14.6316 29.755C14.5742 29.7676 14.5156 29.7739 14.4568 29.7739Z" fill="#E9809C"/>
<path d="M24.7271 27.2949L29.9386 18.7502C29.9985 18.6521 30.037 18.5425 30.0518 18.4285C30.0666 18.3146 30.0572 18.1988 30.0244 18.0886C29.9916 17.9785 29.936 17.8765 29.8612 17.7893C29.7864 17.702 29.6941 17.6314 29.5903 17.5821L20.352 13.1932C20.242 13.141 20.1217 13.114 20 13.1143V28.5852L24.2015 27.6693C24.3099 27.6457 24.4123 27.6003 24.5027 27.536C24.593 27.4716 24.6693 27.3896 24.7271 27.2949Z" fill="#ED99B0"/>
<path d="M20.3518 13.1926C20.1983 13.1197 20.0259 13.0963 19.8585 13.1255C19.6911 13.1548 19.5369 13.2353 19.4173 13.356L19.1795 13.5958V20.1952L14.2299 18.587L13.8743 18.9456C13.722 19.0992 13.6365 19.3068 13.6365 19.5232V20.1192L18.6725 21.7555L13.6365 28.6876V28.9536C13.6365 29.0761 13.664 29.1971 13.7169 29.3077C13.7698 29.4182 13.8468 29.5155 13.9422 29.5924C14.0377 29.6693 14.1491 29.7238 14.2684 29.7519C14.3877 29.7801 14.5118 29.7812 14.6315 29.7551L14.9372 29.6884L19.9998 22.7199L23.678 27.7828L24.2013 27.6687C24.3097 27.6451 24.4121 27.5998 24.5025 27.5354C24.5928 27.4711 24.6691 27.3891 24.7269 27.2944L25.0117 26.8274L21.327 21.7556L29.7803 19.009L29.9384 18.7497C29.9983 18.6515 30.0368 18.542 30.0516 18.428C30.0664 18.314 30.057 18.1982 30.0242 18.0881C29.9914 17.978 29.9358 17.876 29.861 17.7887C29.7862 17.7015 29.6939 17.6309 29.5901 17.5816L29.2954 17.4415L20.8201 20.1953V13.4152L20.3518 13.1926Z" fill="#ED99B0"/>
<path d="M24.2015 27.6692C24.3098 27.6456 24.4123 27.6003 24.5026 27.5359C24.5929 27.4716 24.6693 27.3896 24.727 27.2949L25.0118 26.8279L21.3272 21.756L29.7804 19.0095L29.9386 18.7501C29.9984 18.652 30.037 18.5424 30.0517 18.4285C30.0665 18.3145 30.0572 18.1987 30.0244 18.0886C29.9915 17.9785 29.9359 17.8765 29.8611 17.7892C29.7863 17.702 29.6941 17.6314 29.5903 17.5821L29.2955 17.442L20.8203 20.1957V13.4156L20.352 13.1932C20.242 13.141 20.1217 13.114 20 13.1143V22.7204L23.6782 27.7834L24.2015 27.6692Z" fill="#E9809C"/>
</g>
<defs>
<clipPath id="clip0_2268_1342">
<rect width="28" height="28" fill="white" transform="translate(6 6)"/>
</clipPath>
</defs>
</svg>
