<svg width="40" height="40" viewBox="0 0 40 40" fill="none" xmlns="http://www.w3.org/2000/svg">
<path d="M20.4375 33.875C13.025 33.875 7 27.85 7 20.4375C7 17.4875 7.9375 14.6875 9.7125 12.3375C10.025 11.925 10.6125 11.85 11.025 12.1625C11.4375 12.475 11.525 13.0625 11.2125 13.475C9.68995 15.4762 8.86851 17.923 8.875 20.4375C8.875 26.8125 14.0625 32 20.4375 32C26.8125 32 32 26.8125 32 20.4375C32 14.0625 26.8125 8.875 20.4375 8.875C19.925 8.875 19.5 8.45 19.5 7.9375C19.5 7.425 19.925 7 20.4375 7C27.85 7 33.875 13.025 33.875 20.4375C33.875 27.85 27.85 33.875 20.4375 33.875Z" fill="#DB3360"/>
<path d="M20.4375 30.125C15.1 30.125 10.75 25.775 10.75 20.4375C10.75 19.925 11.175 19.5 11.6875 19.5C12.2 19.5 12.625 19.925 12.625 20.4375C12.625 24.75 16.125 28.25 20.4375 28.25C24.75 28.25 28.25 24.75 28.25 20.4375C28.25 16.125 24.75 12.625 20.4375 12.625C19.925 12.625 19.5 12.2 19.5 11.6875C19.5 11.175 19.925 10.75 20.4375 10.75C25.775 10.75 30.125 15.1 30.125 20.4375C30.125 25.775 25.775 30.125 20.4375 30.125Z" fill="#FF9EB8"/>
<path d="M20.4375 26.375C19.925 26.375 19.5 25.95 19.5 25.4375C19.5 24.925 19.925 24.5 20.4375 24.5C22.675 24.5 24.5 22.675 24.5 20.4375C24.5 18.2 22.675 16.375 20.4375 16.375C19.925 16.375 19.5 15.95 19.5 15.4375C19.5 14.925 19.925 14.5 20.4375 14.5C23.7125 14.5 26.375 17.1625 26.375 20.4375C26.375 23.7125 23.7125 26.375 20.4375 26.375Z" fill="#DB3360"/>
</svg>
